<svg width="64px" height="64px" viewBox="-13.44 -13.44 50.88 50.88" role="img" xmlns="http://www.w3.org/2000/svg" fill="#000000"><g id="SVGRepo_bgCarrier" stroke-width="0"></g><g id="SVGRepo_tracerCarrier" stroke-linecap="round" stroke-linejoin="round"></g><g id="SVGRepo_iconCarrier"><title>AtCoder icon</title><path d="M19.623 1.229a.95.95 0 0 0-.952.95v1.278a.95.95 0 0 0 .952.95h1.278a.95.95 0 0 0 .95-.95V2.179a.95.95 0 0 0-.95-.95zm-2.853 3.19a.635.635 0 0 0-.635.635v1.278a.635.635 0 0 0 .635.635h1.278a.635.635 0 0 0 .635-.635V4.99a.635.635 0 0 0-.635-.635zm-2.217 2.217a.635.635 0 0 0-.635.635v1.278a.635.635 0 0 0 .635.635h1.278a.635.635 0 0 0 .635-.635V8.582a.635.635 0 0 0-.635-.635zM.95 2.179A.95.95 0 0 0 0 3.13v17.74a.95.95 0 0 0 .95.95h1.278a.95.95 0 0 0 .95-.95V3.13a.95.95 0 0 0-.95-.95zm3.19 2.534a.635.635 0 0 0-.635.635v1.278a.635.635 0 0 0 .635.635h1.278a.635.635 0 0 0 .635-.635V5.284a.635.635 0 0 0-.635-.635zm2.217 2.217a.635.635 0 0 0-.635.635v1.278a.635.635 0 0 0 .635.635h1.278a.635.635 0 0 0 .635-.635V8.136a.635.635 0 0 0-.635-.635zm12.78 6.075a1.59 1.59 0 0 0-1.588 1.588v1.278c0 .876.712 1.588 1.588 1.588h1.278c.876 0 1.588-.712 1.588-1.588v-1.278a1.59 1.59 0 0 0-1.588-1.588zm-2.217-2.217a.95.95 0 0 0-.95.95v1.278a.95.95 0 0 0 .95.95h1.278a.95.95 0 0 0 .95-.95v-1.278a.95.95 0 0 0-.95-.95zm-1.278-1.278a1.59 1.59 0 0 0-1.588 1.588v1.278c0 .876.712 1.588 1.588 1.588h1.278c.876 0 1.588-.712 1.588-1.588v-1.278c0-.876-.712-1.588-1.588-1.588zM6.983 14.53a.95.95 0 0 0-.95.95v1.278a.95.95 0 0 0 .95.95h1.278a.95.95 0 0 0 .95-.95v-1.278a.95.95 0 0 0-.95-.95zM4.143 17.06a.635.635 0 0 0-.635.635v1.278a.635.635 0 0 0 .635.635h1.278a.635.635 0 0 0 .635-.635v-1.278a.635.635 0 0 0-.635-.635zM12.1 20.857a.95.95 0 0 0-.95.95h-.002v1.278a.95.95 0 0 0 .95.95h1.278a.95.95 0 0 0 .95-.95v-1.278a.95.95 0 0 0-.95-.95z" fill-rule="evenodd" fill="#fff"></path></g></svg>